<mxfile host="Electron" agent="Mozilla/5.0 (X11; Linux x86_64) AppleWebKit/537.36 (KHTML, like Gecko) draw.io/24.7.17 Chrome/128.0.6613.36 Electron/32.0.1 Safari/537.36" version="24.7.17">
  <diagram name="Page-1" id="HvC_uZuNoEPfbwJATk7c">
    <mxGraphModel dx="1008" dy="689" grid="1" gridSize="10" guides="1" tooltips="1" connect="1" arrows="1" fold="1" page="1" pageScale="1" pageWidth="850" pageHeight="1100" math="0" shadow="0">
      <root>
        <mxCell id="0" />
        <mxCell id="1" parent="0" />
        <mxCell id="hUkWMLdkedBmcrUZXga9-9" value="" style="rounded=1;whiteSpace=wrap;html=1;dashed=1;" vertex="1" parent="1">
          <mxGeometry x="160" y="490" width="370" height="260" as="geometry" />
        </mxCell>
        <mxCell id="hUkWMLdkedBmcrUZXga9-16" style="edgeStyle=orthogonalEdgeStyle;rounded=0;orthogonalLoop=1;jettySize=auto;html=1;exitX=1;exitY=0.5;exitDx=0;exitDy=0;entryX=0;entryY=0.5;entryDx=0;entryDy=0;" edge="1" parent="1" source="hUkWMLdkedBmcrUZXga9-14" target="hUkWMLdkedBmcrUZXga9-15">
          <mxGeometry relative="1" as="geometry" />
        </mxCell>
        <mxCell id="hUkWMLdkedBmcrUZXga9-25" style="edgeStyle=orthogonalEdgeStyle;rounded=0;orthogonalLoop=1;jettySize=auto;html=1;exitX=0.5;exitY=0;exitDx=0;exitDy=0;entryX=0.5;entryY=1;entryDx=0;entryDy=0;" edge="1" parent="1" source="hUkWMLdkedBmcrUZXga9-14" target="hUkWMLdkedBmcrUZXga9-24">
          <mxGeometry relative="1" as="geometry" />
        </mxCell>
        <mxCell id="hUkWMLdkedBmcrUZXga9-14" value="UseCase" style="rounded=0;whiteSpace=wrap;html=1;" vertex="1" parent="1">
          <mxGeometry x="190" y="645" width="120" height="60" as="geometry" />
        </mxCell>
        <mxCell id="hUkWMLdkedBmcrUZXga9-15" value="Model" style="rounded=0;whiteSpace=wrap;html=1;" vertex="1" parent="1">
          <mxGeometry x="380" y="645" width="120" height="60" as="geometry" />
        </mxCell>
        <mxCell id="hUkWMLdkedBmcrUZXga9-17" value="Domait" style="text;html=1;align=center;verticalAlign=middle;whiteSpace=wrap;rounded=0;" vertex="1" parent="1">
          <mxGeometry x="170" y="720" width="60" height="30" as="geometry" />
        </mxCell>
        <mxCell id="hUkWMLdkedBmcrUZXga9-19" value="" style="rounded=1;whiteSpace=wrap;html=1;dashed=1;" vertex="1" parent="1">
          <mxGeometry x="160" y="250" width="370" height="150" as="geometry" />
        </mxCell>
        <mxCell id="hUkWMLdkedBmcrUZXga9-21" value="DataStorage" style="text;html=1;align=center;verticalAlign=middle;whiteSpace=wrap;rounded=0;" vertex="1" parent="1">
          <mxGeometry x="180" y="370" width="60" height="30" as="geometry" />
        </mxCell>
        <mxCell id="hUkWMLdkedBmcrUZXga9-26" style="edgeStyle=orthogonalEdgeStyle;rounded=0;orthogonalLoop=1;jettySize=auto;html=1;exitX=0.5;exitY=1;exitDx=0;exitDy=0;" edge="1" parent="1" source="hUkWMLdkedBmcrUZXga9-23" target="hUkWMLdkedBmcrUZXga9-24">
          <mxGeometry relative="1" as="geometry" />
        </mxCell>
        <mxCell id="hUkWMLdkedBmcrUZXga9-28" style="edgeStyle=orthogonalEdgeStyle;rounded=0;orthogonalLoop=1;jettySize=auto;html=1;exitX=1;exitY=0.5;exitDx=0;exitDy=0;" edge="1" parent="1" source="hUkWMLdkedBmcrUZXga9-23" target="hUkWMLdkedBmcrUZXga9-27">
          <mxGeometry relative="1" as="geometry" />
        </mxCell>
        <mxCell id="hUkWMLdkedBmcrUZXga9-23" value="RepositoryImpl" style="rounded=0;whiteSpace=wrap;html=1;" vertex="1" parent="1">
          <mxGeometry x="190" y="295" width="120" height="60" as="geometry" />
        </mxCell>
        <mxCell id="hUkWMLdkedBmcrUZXga9-24" value="Repository Interface" style="rounded=0;whiteSpace=wrap;html=1;" vertex="1" parent="1">
          <mxGeometry x="190" y="530" width="120" height="60" as="geometry" />
        </mxCell>
        <mxCell id="hUkWMLdkedBmcrUZXga9-27" value="Storage" style="rounded=0;whiteSpace=wrap;html=1;" vertex="1" parent="1">
          <mxGeometry x="380" y="295" width="120" height="60" as="geometry" />
        </mxCell>
      </root>
    </mxGraphModel>
  </diagram>
</mxfile>
